<mxfile host="app.diagrams.net" modified="2022-11-01T07:41:15.743Z" agent="5.0 (Macintosh; Intel Mac OS X 10_15_7) AppleWebKit/537.36 (KHTML, like Gecko) Chrome/106.0.0.0 Safari/537.36" etag="AoRKrKkg4nGYof1BqPCq" version="20.3.7" type="github">
  <diagram id="tt1jwUUzBGG--BLduiOA" name="Page-1">
    <mxGraphModel dx="2036" dy="1158" grid="1" gridSize="10" guides="1" tooltips="1" connect="1" arrows="1" fold="1" page="1" pageScale="1" pageWidth="827" pageHeight="1169" math="0" shadow="0">
      <root>
        <mxCell id="0" />
        <mxCell id="1" parent="0" />
        <mxCell id="bwbJDDHmzJSM0vDPdATW-1" value="ChopeHomeFragment" style="rounded=0;whiteSpace=wrap;html=1;" vertex="1" parent="1">
          <mxGeometry x="120" y="240" width="210" height="50" as="geometry" />
        </mxCell>
        <mxCell id="bwbJDDHmzJSM0vDPdATW-2" value="onResume" style="rounded=1;whiteSpace=wrap;html=1;" vertex="1" parent="1">
          <mxGeometry x="160" y="370" width="120" height="60" as="geometry" />
        </mxCell>
        <mxCell id="bwbJDDHmzJSM0vDPdATW-28" style="edgeStyle=orthogonalEdgeStyle;rounded=0;orthogonalLoop=1;jettySize=auto;html=1;fontColor=#09090A;" edge="1" parent="1" source="bwbJDDHmzJSM0vDPdATW-1" target="bwbJDDHmzJSM0vDPdATW-2">
          <mxGeometry relative="1" as="geometry">
            <Array as="points">
              <mxPoint x="220" y="320" />
              <mxPoint x="220" y="320" />
            </Array>
          </mxGeometry>
        </mxCell>
        <mxCell id="bwbJDDHmzJSM0vDPdATW-3" value="&lt;p style=&quot;font-family: &amp;quot;JetBrains Mono&amp;quot;, monospace; font-size: 9.8pt;&quot;&gt;&lt;span style=&quot;background-color: rgb(255, 255, 255);&quot;&gt;&lt;font color=&quot;#09090a&quot;&gt;ChopeOrderStatusWebSockectService&lt;/font&gt;&lt;/span&gt;&lt;/p&gt;" style="rounded=0;whiteSpace=wrap;html=1;" vertex="1" parent="1">
          <mxGeometry x="454" y="240" width="296" height="50" as="geometry" />
        </mxCell>
        <mxCell id="bwbJDDHmzJSM0vDPdATW-4" value="START SERVICE" style="endArrow=classic;html=1;rounded=0;fontColor=#09090A;exitX=1;exitY=0.5;exitDx=0;exitDy=0;entryX=0;entryY=0.5;entryDx=0;entryDy=0;" edge="1" parent="1" source="bwbJDDHmzJSM0vDPdATW-2" target="bwbJDDHmzJSM0vDPdATW-3">
          <mxGeometry width="50" height="50" relative="1" as="geometry">
            <mxPoint x="430" y="430" as="sourcePoint" />
            <mxPoint x="480" y="380" as="targetPoint" />
          </mxGeometry>
        </mxCell>
        <mxCell id="bwbJDDHmzJSM0vDPdATW-6" style="edgeStyle=orthogonalEdgeStyle;rounded=0;orthogonalLoop=1;jettySize=auto;html=1;entryX=0.5;entryY=0;entryDx=0;entryDy=0;fontColor=#09090A;" edge="1" parent="1" source="bwbJDDHmzJSM0vDPdATW-5" target="bwbJDDHmzJSM0vDPdATW-3">
          <mxGeometry relative="1" as="geometry">
            <Array as="points">
              <mxPoint x="220" y="640" />
              <mxPoint x="780" y="640" />
              <mxPoint x="780" y="220" />
              <mxPoint x="602" y="220" />
            </Array>
          </mxGeometry>
        </mxCell>
        <mxCell id="bwbJDDHmzJSM0vDPdATW-7" value="STOP SERVICE" style="edgeLabel;html=1;align=center;verticalAlign=middle;resizable=0;points=[];fontColor=#09090A;" vertex="1" connectable="0" parent="bwbJDDHmzJSM0vDPdATW-6">
          <mxGeometry x="-0.8133" y="2" relative="1" as="geometry">
            <mxPoint x="214" y="2" as="offset" />
          </mxGeometry>
        </mxCell>
        <mxCell id="bwbJDDHmzJSM0vDPdATW-31" style="edgeStyle=orthogonalEdgeStyle;rounded=0;orthogonalLoop=1;jettySize=auto;html=1;entryX=0;entryY=0.5;entryDx=0;entryDy=0;fontColor=#09090A;" edge="1" parent="1" source="bwbJDDHmzJSM0vDPdATW-5" target="bwbJDDHmzJSM0vDPdATW-2">
          <mxGeometry relative="1" as="geometry">
            <Array as="points">
              <mxPoint x="140" y="510" />
              <mxPoint x="140" y="400" />
            </Array>
          </mxGeometry>
        </mxCell>
        <mxCell id="bwbJDDHmzJSM0vDPdATW-5" value="onStop" style="rounded=1;whiteSpace=wrap;html=1;labelBackgroundColor=#FFFFFF;fontColor=#09090A;" vertex="1" parent="1">
          <mxGeometry x="160" y="480" width="120" height="60" as="geometry" />
        </mxCell>
        <mxCell id="bwbJDDHmzJSM0vDPdATW-29" style="edgeStyle=orthogonalEdgeStyle;rounded=0;orthogonalLoop=1;jettySize=auto;html=1;entryX=0.5;entryY=0;entryDx=0;entryDy=0;fontColor=#09090A;" edge="1" parent="1" source="bwbJDDHmzJSM0vDPdATW-2" target="bwbJDDHmzJSM0vDPdATW-5">
          <mxGeometry relative="1" as="geometry" />
        </mxCell>
        <mxCell id="bwbJDDHmzJSM0vDPdATW-8" value="onStartCommand" style="rounded=1;whiteSpace=wrap;html=1;labelBackgroundColor=#FFFFFF;fontColor=#09090A;" vertex="1" parent="1">
          <mxGeometry x="542" y="320" width="120" height="40" as="geometry" />
        </mxCell>
        <mxCell id="bwbJDDHmzJSM0vDPdATW-12" style="edgeStyle=orthogonalEdgeStyle;rounded=0;orthogonalLoop=1;jettySize=auto;html=1;entryX=0.5;entryY=0;entryDx=0;entryDy=0;fontColor=#09090A;" edge="1" parent="1" source="bwbJDDHmzJSM0vDPdATW-3" target="bwbJDDHmzJSM0vDPdATW-8">
          <mxGeometry relative="1" as="geometry" />
        </mxCell>
        <mxCell id="bwbJDDHmzJSM0vDPdATW-9" value="heartBeatService&lt;br&gt;(via javaThread)" style="rounded=1;whiteSpace=wrap;html=1;labelBackgroundColor=#FFFFFF;fontColor=#09090A;" vertex="1" parent="1">
          <mxGeometry x="542" y="380" width="120" height="50" as="geometry" />
        </mxCell>
        <mxCell id="bwbJDDHmzJSM0vDPdATW-14" style="edgeStyle=orthogonalEdgeStyle;rounded=0;orthogonalLoop=1;jettySize=auto;html=1;entryX=0.5;entryY=0;entryDx=0;entryDy=0;fontColor=#09090A;" edge="1" parent="1" source="bwbJDDHmzJSM0vDPdATW-8" target="bwbJDDHmzJSM0vDPdATW-9">
          <mxGeometry relative="1" as="geometry" />
        </mxCell>
        <mxCell id="bwbJDDHmzJSM0vDPdATW-18" style="edgeStyle=orthogonalEdgeStyle;rounded=0;orthogonalLoop=1;jettySize=auto;html=1;entryX=1;entryY=0.25;entryDx=0;entryDy=0;fontColor=#09090A;" edge="1" parent="1" source="bwbJDDHmzJSM0vDPdATW-11" target="bwbJDDHmzJSM0vDPdATW-9">
          <mxGeometry relative="1" as="geometry">
            <Array as="points">
              <mxPoint x="700" y="490" />
              <mxPoint x="700" y="393" />
            </Array>
          </mxGeometry>
        </mxCell>
        <mxCell id="bwbJDDHmzJSM0vDPdATW-11" value="someTask to init&lt;br&gt;websocket client" style="rounded=1;whiteSpace=wrap;html=1;labelBackgroundColor=#FFFFFF;fontColor=#09090A;" vertex="1" parent="1">
          <mxGeometry x="620" y="500" width="120" height="60" as="geometry" />
        </mxCell>
        <mxCell id="bwbJDDHmzJSM0vDPdATW-15" style="edgeStyle=orthogonalEdgeStyle;rounded=0;orthogonalLoop=1;jettySize=auto;html=1;fontColor=#09090A;" edge="1" parent="1" source="bwbJDDHmzJSM0vDPdATW-13">
          <mxGeometry relative="1" as="geometry">
            <mxPoint x="370" y="640" as="targetPoint" />
          </mxGeometry>
        </mxCell>
        <mxCell id="bwbJDDHmzJSM0vDPdATW-32" value="STOP THIS" style="edgeStyle=orthogonalEdgeStyle;rounded=0;orthogonalLoop=1;jettySize=auto;html=1;entryX=0;entryY=0.5;entryDx=0;entryDy=0;fontColor=#09090A;fillColor=#f8cecc;strokeColor=#DE0F00;" edge="1" parent="1" source="bwbJDDHmzJSM0vDPdATW-13" target="bwbJDDHmzJSM0vDPdATW-9">
          <mxGeometry relative="1" as="geometry">
            <Array as="points">
              <mxPoint x="522" y="540" />
              <mxPoint x="522" y="405" />
            </Array>
          </mxGeometry>
        </mxCell>
        <mxCell id="bwbJDDHmzJSM0vDPdATW-13" value="onDestroy" style="rounded=1;whiteSpace=wrap;html=1;labelBackgroundColor=#FFFFFF;fontColor=#09090A;" vertex="1" parent="1">
          <mxGeometry x="394" y="510" width="106" height="60" as="geometry" />
        </mxCell>
        <mxCell id="bwbJDDHmzJSM0vDPdATW-33" value="WebSocketDiagram Android&lt;br&gt;CHOPE" style="text;html=1;resizable=0;autosize=1;align=center;verticalAlign=middle;points=[];fillColor=none;strokeColor=none;rounded=0;labelBackgroundColor=#FFFFFF;fontColor=#09090A;" vertex="1" parent="1">
          <mxGeometry x="50" y="30" width="170" height="40" as="geometry" />
        </mxCell>
        <mxCell id="bwbJDDHmzJSM0vDPdATW-16" style="edgeStyle=orthogonalEdgeStyle;rounded=0;orthogonalLoop=1;jettySize=auto;html=1;fontColor=#09090A;" edge="1" parent="1" source="bwbJDDHmzJSM0vDPdATW-9" target="bwbJDDHmzJSM0vDPdATW-11">
          <mxGeometry relative="1" as="geometry" />
        </mxCell>
      </root>
    </mxGraphModel>
  </diagram>
</mxfile>
